<svg width="1000" height="760" viewBox="0 0 1000 760" fill="none" xmlns="http://www.w3.org/2000/svg">
  <defs>
    <linearGradient id="g1" x1="230" y1="80" x2="820" y2="650" gradientUnits="userSpaceOnUse">
      <stop offset="0" stop-color="#FFD37A"/>
      <stop offset="0.45" stop-color="#FFAD2E"/>
      <stop offset="1" stop-color="#FF7A00"/>
    </linearGradient>
    <linearGradient id="g2" x1="250" y1="120" x2="800" y2="640" gradientUnits="userSpaceOnUse">
      <stop offset="0" stop-color="#FFC868" stopOpacity="0.65"/>
      <stop offset="0.55" stop-color="#FF9C14" stopOpacity="0.38"/>
      <stop offset="1" stop-color="#FF6F00" stopOpacity="0.28"/>
    </linearGradient>
    <linearGradient id="g3" x1="215" y1="90" x2="760" y2="540" gradientUnits="userSpaceOnUse">
      <stop offset="0" stop-color="#FFE09A" stopOpacity="0.58"/>
      <stop offset="0.5" stop-color="#FFB02E" stopOpacity="0.26"/>
      <stop offset="1" stop-color="#FF8A00" stopOpacity="0.18"/>
    </linearGradient>
  </defs>

  <!-- camada principal, formato parecido com o da hero: ponta esquerda, topo com vale, vale direito e base com recorte -->
  <path d="
    M 125 555
    C 95 455, 115 360, 205 305
    C 282 258, 255 150, 342 91
    C 442 24, 610 52, 676 143
    C 724 210, 758 211, 826 191
    C 903 168, 964 224, 951 313
    C 941 381, 889 415, 886 486
    C 882 582, 790 660, 688 637
    C 612 620, 585 546, 513 560
    C 441 574, 431 662, 338 672
    C 248 682, 217 604, 125 555
    Z" fill="url(#g1)"/>

  <!-- camada do meio deslocada, cria os vales visuais internos -->
  <path d="
    M 176 548
    C 130 465, 152 385, 238 333
    C 314 287, 295 190, 370 139
    C 460 78, 600 104, 656 183
    C 708 257, 748 272, 818 244
    C 888 216, 932 263, 912 352
    C 895 428, 824 454, 826 527
    C 829 610, 748 663, 660 637
    C 584 615, 560 536, 488 552
    C 416 568, 414 646, 322 651
    C 252 655, 232 594, 176 548
    Z" fill="url(#g2)"/>

  <!-- camada clara superior/esquerda para dar profundidade -->
  <path d="
    M 204 491
    C 160 423, 184 355, 262 307
    C 332 264, 320 182, 392 142
    C 477 94, 585 126, 635 195
    C 688 268, 734 300, 803 272
    C 849 253, 884 274, 891 322
    C 840 307, 787 325, 735 366
    C 665 421, 607 405, 548 361
    C 477 308, 417 314, 369 382
    C 313 461, 265 468, 204 491
    Z" fill="url(#g3)"/>

  <!-- marcações sutis internas, quase invisíveis, como na referência -->
  <path d="M 675 170 C 710 225 768 226 827 203" stroke="#FFB13A" stroke-opacity="0.13" stroke-width="2"/>
  <path d="M 330 614 C 397 640 438 607 483 563" stroke="#FF8A00" stroke-opacity="0.11" stroke-width="2"/>
</svg>
