<svg width="560" height="620" viewBox="0 0 560 620" fill="none" xmlns="http://www.w3.org/2000/svg">
<path d="M49.7204 297.582C42.7729 309.409 41.4814 334.222 41.704 345.149L438.514 431.928C455.215 432.785 498.904 426.529 540.055 394.646C560.363 337.05 541.391 302.081 529.366 291.796C529.366 291.796 578.8 152.307 468.575 68.7421C396.917 14.4158 306.912 5.7469 231.425 17.3174C155.937 28.888 67.0892 133.023 70.4294 187.019C73.7695 241.014 58.4048 282.797 49.7204 297.582Z" fill="white"/>
<path d="M278.854 409.43C278.854 409.43 153.487 404.288 135.228 399.788C131.888 408.359 140.706 426.014 202.699 428.071C264.692 430.128 279.3 416.501 278.854 409.43Z" fill="white"/>
<path d="M199.266 616.62C189.392 620.862 173.012 621.145 159.945 617.276C150.446 614.473 139.811 609.112 137.941 606.181C137.46 605.448 133.331 604.844 128.762 604.844C122.041 604.844 118.621 603.995 110.859 600.421C100.758 595.767 90.1897 587.398 87.0766 581.6C85.6203 578.887 83.9102 577.961 78.9935 577.254C74.1302 576.547 71.3245 575.069 66.3009 570.543C59.3935 564.334 53.0605 553.715 53.0605 548.341C53.0472 545.667 51.9516 544.625 47.0483 542.684C34.4225 537.683 24.5089 522.153 22.8255 504.681C22.0639 496.736 21.6364 495.798 17.5882 493.124C8.85032 487.377 4.44129 471.692 6.44538 453.462C7.14013 447.021 6.93973 444.283 5.61703 442.856C-1.55762 435.04 -1.89161 420.641 4.80205 407.656C7.99523 401.434 8.50293 399.415 7.34056 397.32C6.53892 395.893 5.84416 390.66 5.79072 385.685C5.65711 374.77 8.5163 368.008 17.2007 358.648C22.5984 352.837 23.3199 351.282 24.7227 342.372C26.1924 332.987 30.1337 322.805 35.184 315.374L37.5088 311.942L31.4297 306.259C20.4473 295.987 16.6128 281.756 16.4391 250.657C16.3322 232.105 15.9982 228.57 14.1545 227.233C8.04868 222.823 5.71056 208.463 9.63858 199.425C12.9387 191.814 17.3076 190.464 41.036 189.654L61.7449 188.947L63.3616 183.805C64.2434 180.976 66.3143 173.751 67.9576 167.734C81.4385 118.367 117.285 67.1992 157.741 39.5842C197.021 12.7663 242.634 0.0386561 299.564 8.7625e-05C342.331 -0.0256247 374.904 5.60537 412.461 19.5029C433.784 27.3966 465.836 44.7267 479.13 55.5387L483.659 59.2413L481.428 65.5922C480.212 69.0891 478.101 73.3445 476.752 75.0286L474.294 78.1012L464.3 69.1791C452.917 59.0227 438.086 50.0748 417.979 41.2298C383.134 25.8924 350.16 18.8215 308.248 17.6902C256.249 16.3017 212.279 27.4737 173.974 51.849C159.037 61.3497 133.972 86.4192 122.055 103.788C105.327 128.15 94.3983 150.867 86.9698 176.721C83.015 190.451 83.0284 191.724 86.9965 192.457C91.2318 193.228 94.4784 191.377 94.4784 188.189C94.4784 180.783 104.512 169.239 115.187 164.379C129.109 158.028 151.208 162.296 162.364 173.468C170.14 181.246 173.119 192.251 168.95 197.741C167.267 199.952 164.929 199.695 155.937 196.326C154.828 195.915 152.477 195.414 150.713 195.221C148.936 195.015 147.052 194.179 146.518 193.344C145.984 192.508 144.915 192.2 144.153 192.662C143.392 193.112 142.403 192.932 141.975 192.264C141.548 191.595 140.145 191.03 138.876 191.017C137.606 190.991 134.761 190.644 132.556 190.233C124.58 188.728 103.149 188.214 101.172 189.487C97.6983 191.724 101.252 193.202 115.187 195.337C137.259 198.731 174.201 208.578 180.654 212.795C194.028 221.537 216.514 226.59 224.611 222.682C231.919 219.146 240.884 217.873 258.4 217.886C299.938 217.925 351.096 225.574 384.404 236.733C400.049 241.979 419.208 250.734 429.99 257.56C435.414 260.993 449.764 268.681 461.895 274.659L483.94 285.522L500.921 285.754L517.916 285.972L519.292 280.534C520.054 277.539 521.323 273.348 522.125 271.226C524.65 264.541 528.311 247.288 530.034 233.944C533.254 209.157 529.687 164.482 523.447 151.664C522.766 150.25 521.483 146.779 520.588 143.95C518.584 137.548 509.205 119.357 507.361 118.264C505.264 117.017 505.718 113.739 507.989 113.739C509.098 113.739 509.993 113.211 509.993 112.556C509.993 110.704 518.838 105.922 520.882 106.668C525.625 108.416 537.61 131.326 544.677 152.14C556.101 185.797 557.063 226.706 547.283 264.156C545.158 272.293 542.166 281.923 540.629 285.561L537.85 292.182L544.036 298.134C561.138 314.59 564.865 344.674 553.442 373.896C541.791 403.671 523.942 424.433 499.973 436.094C490.233 440.838 471.728 444.515 460.946 443.846L451.207 443.242L451.18 449.798C451.14 457.949 445.889 472.605 440.812 478.738C437.285 482.98 437.018 484.034 437.539 491.71C437.966 497.958 437.405 501.982 435.334 507.638C432.021 516.715 429.977 519.067 422.308 522.641C419.101 524.146 416.469 526.216 416.469 527.257C416.469 531.448 408.947 543.545 403.015 548.881C396.348 554.885 384.203 559.487 379.126 557.944C377.002 557.289 375.893 558.304 373.247 563.318C369.747 569.952 356.774 582.693 350.294 585.855C344.535 588.658 332.765 591.088 328.623 590.329C325.764 589.802 323.72 590.83 318.322 595.523C306.124 606.116 286.858 612.429 277.773 608.803C274.539 607.505 272.896 607.826 265.427 611.182C247.551 619.204 222.954 621.698 211.958 616.607L205.852 613.779L199.266 616.62ZM324.748 438.176C324 442.843 324.12 443.075 326.926 442.226C328.556 441.725 331.028 440.221 332.431 438.871C333.82 437.534 335.437 436.428 336.011 436.428C336.586 436.428 337.735 434.692 338.563 432.571C339.405 430.45 340.661 428.714 341.369 428.714C342.077 428.714 343.413 430.45 344.322 432.571C345.23 434.692 346.713 436.428 347.608 436.428C349.666 436.428 357.482 428.29 361.544 421.926C363.775 418.417 365.298 417.259 366.995 417.774C369.6 418.571 380.208 411.166 380.329 408.466C380.369 407.579 380.997 406.859 381.731 406.859C382.466 406.859 383.067 406.023 383.067 404.995C383.067 401.845 386.074 396.574 387.864 396.574C389.561 396.574 396.695 390.339 400.436 385.595C403.055 382.252 408.453 371.62 408.453 369.795C408.453 368.997 410.176 367.493 412.3 366.439C415.881 364.652 420.477 356.746 420.477 352.336C420.477 351.372 421.372 348.929 422.468 346.898C423.577 344.879 424.472 342.038 424.472 340.585C424.485 339.133 425.006 337.397 425.661 336.729C426.302 336.06 427.852 332.319 429.095 328.436C431.5 320.941 433.116 316.943 435.855 311.723C436.777 309.949 437.98 305.977 438.501 302.891C439.275 298.43 439.102 297.402 437.659 297.916C436.657 298.263 433.13 297.26 429.83 295.679C426.529 294.098 422.014 292.066 419.809 291.179C417.605 290.279 414.305 288.826 412.461 287.927C407.557 285.522 402.574 286.14 401.959 289.225C401.679 290.639 400.824 293.236 400.049 295.01C399.287 296.784 398.552 298.52 398.432 298.867C398.312 299.214 397.51 301.13 396.655 303.097C395.813 305.077 394.731 308.265 394.25 310.168C393.769 312.083 392.714 314.462 391.899 315.452C391.084 316.454 390.603 317.316 390.843 317.38C391.645 317.611 388.318 325.209 382.72 335.919C376.16 348.492 370.188 354.959 361.116 359.33C355.211 362.184 352.886 362.505 338.403 362.505C318.95 362.505 297.613 360.937 295.636 359.355C294.847 358.725 290.425 357.787 285.829 357.298C281.22 356.797 277.118 355.858 276.704 355.216C276.29 354.573 274.806 354.393 273.404 354.83C271.867 355.293 270.838 354.997 270.838 354.097C270.838 353.262 269.97 352.902 268.914 353.3C267.872 353.686 266.817 353.596 266.576 353.082C266.349 352.58 259.856 350.266 252.134 347.952C244.411 345.625 237.904 343.169 237.664 342.501C237.41 341.845 236.635 341.292 235.927 341.292C233.349 341.292 223.716 331.496 220.763 325.865C216.474 317.663 213.535 302.081 212.252 280.547C210.876 257.676 208.845 253.961 197.743 253.883C193.935 253.871 188.751 259.244 184.756 267.37C178.784 279.48 170.634 296.656 170.634 297.119C170.634 297.376 172.825 297.582 175.484 297.582C186.867 297.582 195.952 303.187 185.063 303.495C174.281 303.804 165.45 305.655 156.939 309.409C149.417 312.726 147.373 314.333 144.581 319.141C140.84 325.595 139.904 338.451 142.911 342.192C148.201 348.788 157.206 356.141 163.259 358.803C181.296 366.748 206.414 362.595 211.517 350.819C213.722 345.741 219.707 343.748 222.353 347.232C223.301 348.479 224.076 351.912 224.076 354.856V360.204L233.322 361.04C243.289 361.927 265.16 366.272 285.629 371.427C310.292 377.65 320.086 383.885 325.483 396.818C328.115 403.118 328.436 405.689 327.848 415.46C327.474 421.682 326.806 428.226 326.352 430C325.911 431.774 325.189 435.451 324.748 438.176ZM452.115 422.993C464.019 427.082 480.039 424.408 495.403 415.794C508.003 408.723 516.767 400.611 524.73 388.68C535.418 372.636 539.627 360.397 540.402 343.067C541.337 322.394 537.316 312.623 525.051 305.694C519.279 302.428 517.248 302.043 503.58 301.618C490.727 301.22 487.093 301.58 479.157 304.048C465.636 308.226 458.942 313.652 453.371 324.939C450.846 330.043 448.361 336.253 447.84 338.721C447.319 341.19 446.517 343.799 446.076 344.507C445.635 345.214 445.168 346.371 445.047 347.078C444.927 347.785 444.192 350.677 443.404 353.506C442.629 356.334 441.627 361.245 441.186 364.434C440.759 367.622 440.077 371.954 439.69 374.076C439.302 376.197 438.688 384.759 438.3 393.116C437.392 413.184 440.01 418.841 452.115 422.993ZM309.584 341.717C311.428 342 320.941 342.308 330.734 342.398L348.53 342.578L352.445 338.824C354.583 336.754 356.346 334.723 356.346 334.299C356.346 333.874 357.802 331.316 359.566 328.616C361.343 325.917 363.548 321.147 364.483 318.036C365.405 314.912 366.647 311.749 367.222 311.003C367.81 310.245 369.172 306.195 370.255 302.004C371.337 297.8 373.247 290.896 374.49 286.654C375.732 282.411 376.828 274.98 376.908 270.159C377.042 262.214 376.735 261.134 373.715 258.884C366.099 253.228 365.097 252.572 363.761 252.444C356.159 251.646 354.462 251.235 353.674 250.014C353.166 249.23 351.296 248.445 349.492 248.265C347.689 248.073 345.484 247.494 344.602 246.967C343.707 246.44 342.384 246.363 341.65 246.8C340.915 247.237 340.314 246.941 340.314 246.144C340.314 245.283 339.231 245.026 337.641 245.514C336.118 245.977 334.969 245.745 334.969 244.974C334.969 244.228 333.62 243.637 331.963 243.663C330.306 243.676 327.153 243.341 324.949 242.917C314.928 240.937 307.941 240.77 308.529 242.506C308.849 243.457 310.88 244.807 313.031 245.514C323.159 248.831 338.243 261.546 338.684 267.112C338.724 267.678 339.726 269.555 340.901 271.291C343.68 275.366 344.776 284.623 343.654 294.689C342.825 302.274 340.34 306.079 340.3 299.831C340.273 295.897 338.871 291.153 337.735 291.153C337.227 291.153 336.065 293.93 335.17 297.337C332.979 305.565 328.73 312.16 326.232 311.235C325.163 310.836 324.281 311.081 324.281 311.762C324.281 312.443 323.386 313.009 322.277 313.009C321.168 313.009 320.273 313.626 320.273 314.372C320.273 315.117 319.818 315.477 319.271 315.156C318.723 314.847 313.913 314.976 308.582 315.452C303.251 315.927 298.896 315.863 298.896 315.31C298.896 314.745 298.441 314.359 297.894 314.449C297.346 314.526 296.25 314.526 295.462 314.449C293.445 314.23 284.199 306.131 284.199 304.588C284.199 302.737 279.656 299.253 277.96 299.793C276.437 300.281 274.847 294.483 274.847 288.467C274.847 282.977 279.964 270.918 284.333 266.135C286.444 263.808 291.2 260.659 294.874 259.142C298.562 257.612 301.568 256.018 301.568 255.568C301.568 255.131 296.718 255.13 290.772 255.58C281.554 256.262 278.828 257.046 272.054 261.006C263.049 266.277 258.346 271.586 254.859 280.419C253.523 283.8 251.773 286.77 250.944 287.039C246.963 288.312 251.693 268.861 257.144 261.584C261.139 256.249 268.206 250.091 270.397 250.052C271.253 250.027 272.161 249.422 272.415 248.69C272.949 247.147 285.909 243.65 295.449 242.467C302.637 241.58 305.229 238.945 299.283 238.572C297.226 238.443 284.653 238.045 271.346 237.672C248.967 237.055 246.803 237.183 242.835 239.51C235.633 243.727 234.391 247.455 233.95 266.084C233.696 276.999 234.257 286.371 235.566 293.082C236.662 298.739 237.771 306.401 238.011 310.116C238.546 317.959 240.884 321.957 247.11 325.659C253.764 329.619 279.122 337.037 293.551 339.248C300.526 340.315 307.74 341.434 309.584 341.717ZM194.108 514.516C193.24 517.177 193.507 517.332 197.609 516.651C203.875 515.609 209.38 513.462 209.38 512.048C209.38 511.379 209.981 511.199 210.716 511.637C211.451 512.074 212.052 513.565 212.052 514.953C212.052 518.913 217.797 516.792 224.838 510.197C231.104 504.334 232.667 503.627 234.164 505.954C234.658 506.726 236.475 507.008 238.198 506.584C242.754 505.491 257.758 494.204 265.855 485.796C269.703 481.81 274.192 477.195 275.849 475.549C277.505 473.891 278.855 471.937 278.855 471.204C278.855 470.458 279.456 469.854 280.191 469.854C280.926 469.854 281.527 468.993 281.527 467.926C281.527 466.859 282.128 465.997 282.863 465.997C283.598 465.997 284.199 465.033 284.199 463.85C284.199 462.667 285.067 460.778 286.136 459.646C288.501 457.114 296.224 439.899 296.224 437.122C296.224 436.017 296.825 434.101 297.546 432.88C299.39 429.769 302.436 415.691 301.848 412.966C301.127 409.546 296.571 410.279 293.952 414.251C292.656 416.192 291.294 418.082 290.906 418.429C290.519 418.777 289.356 420.666 288.314 422.608C287.272 424.549 285.923 426.143 285.308 426.143C284.693 426.143 284.199 426.76 284.199 427.519C284.199 428.277 283.451 429.666 282.529 430.591C281.607 431.53 279.67 433.947 278.213 435.965C275.314 439.989 265.441 449.721 260.123 453.784C254.939 457.744 246.081 463.426 245.079 463.426C244.598 463.426 241.018 464.879 237.13 466.64C224.918 472.207 213.121 474.264 194.683 474.019C177.007 473.788 172.718 473.389 165.437 471.255C162.938 470.523 160.426 470.214 159.852 470.561C159.264 470.895 158.396 470.548 157.901 469.79C157.407 469.018 156.164 468.71 155.136 469.083C154.107 469.468 153.265 469.147 153.265 468.388C153.265 467.63 152.37 467.347 151.261 467.746C150.152 468.157 149.257 467.926 149.257 467.244C149.257 466.563 147.801 465.997 146.024 465.997C140.092 465.997 124.62 451.598 120.345 442.072C114.065 428.123 107.558 408.196 105.047 395.288C103.27 386.096 101.867 383.538 99.1947 384.528C96.4424 385.543 95.5339 392.961 95.5205 414.573C95.5072 433.895 95.8813 438.446 97.8453 443.178C98.4064 444.553 98.1659 445.427 97.204 445.427C93.61 445.427 97.6315 461.588 104.673 475.524C109.015 484.112 117.926 494.782 119.823 493.664C120.291 493.381 122.749 495.669 125.275 498.742C130.004 504.489 136.564 508.423 141.401 508.423C143.886 508.423 144.06 507.908 143.204 502.959C142.683 499.95 141.735 496.518 141.08 495.335C140.439 494.139 139.904 491.028 139.904 488.431C139.904 484.523 140.319 483.816 142.243 484.356C165.156 490.822 171.088 491.915 186.84 492.609C197.996 493.098 205.211 492.854 208.097 491.877C210.515 491.08 212.773 490.681 213.107 491.015C213.455 491.35 210.809 494.576 207.215 498.176C197.582 507.87 197.355 508.127 197.355 509.515C197.355 510.21 196.834 510.968 196.193 511.212C195.551 511.444 194.616 512.935 194.108 514.516ZM113.851 310.836C125.194 312.25 137.232 310.605 137.232 307.648C137.232 307.108 140.572 304.241 144.647 301.284C151.542 296.27 155.59 291.681 154.254 290.382C153.933 290.086 151.114 290.716 147.961 291.783C140.279 294.393 131.046 294.342 129.497 291.681C128.842 290.562 127.76 289.624 127.092 289.598C120.679 289.392 116.47 284.327 114.239 274.119C111.059 259.514 118.22 243.676 130.418 238.379C134.159 236.746 137.232 234.933 137.232 234.355C137.232 232.298 125.194 233.339 117.659 236.052C107.478 239.716 98.4733 248.381 94.6655 258.177C93.0889 262.227 91.8063 266.354 91.8063 267.344C91.8063 271.445 89.3079 270.236 88.5196 265.75C86.9965 257.059 92.5278 241.953 100.29 233.596C107.999 225.317 124.126 220.47 135.896 222.9C148.322 225.459 155.683 231.514 163.473 245.566C165.784 249.731 168.256 253.318 168.964 253.549C170.781 254.128 171.903 246.273 170.981 239.549C170.126 233.211 167.227 228.158 164.475 228.158C163.446 228.158 162.617 227.631 162.617 227.001C162.617 225.523 154.681 222.81 153.118 223.749C152.463 224.134 151.929 223.774 151.929 222.952C151.929 222.129 151.034 221.794 149.925 222.193C148.816 222.604 147.921 222.309 147.921 221.55C147.921 220.792 147.039 220.496 145.957 220.895C144.875 221.293 143.619 221.023 143.151 220.303C142.683 219.57 141.481 219.288 140.479 219.66C139.477 220.033 138.274 219.738 137.807 219.018C137.339 218.285 136.137 218.002 135.135 218.375C134.133 218.748 132.944 218.465 132.489 217.771C132.035 217.063 130.565 216.819 129.216 217.231C127.867 217.642 126.384 217.372 125.903 216.626C125.422 215.881 123.417 215.328 121.44 215.379C119.476 215.444 113.651 214.916 108.507 214.197C91.8998 211.908 80.0089 211.612 79.2607 213.477C78.8866 214.402 77.604 222.566 76.4015 231.617C73.716 251.878 70.6832 264.631 64.3904 282.154C64.0964 282.977 63.8025 283.761 63.5353 284.507C60.1283 293.969 58.7522 297.787 60.155 299.806C61.2239 301.336 63.8693 301.837 68.4252 302.981C76.4817 305 101.145 309.268 113.851 310.836ZM368.798 221.087C369.106 224.379 362.946 225.33 359.954 222.437C358.805 221.345 356.961 220.445 355.852 220.445C354.743 220.445 353.434 219.827 352.953 219.069C352.458 218.31 351.296 217.989 350.347 218.336C349.412 218.683 347.381 218.118 345.831 217.076C338.523 212.152 280.164 206.56 269.743 209.787C259.656 212.924 254.445 204.606 259.375 193.254C263.891 182.853 273.056 180.256 302.45 181.053C325.283 181.67 330.948 182.828 344.054 189.564C354.609 194.977 360.622 200.698 365.004 209.517C367.77 215.058 368.438 217.102 368.798 221.087ZM61.5312 390.467C64.3636 393.823 67.156 396.574 67.7438 396.574C69.4006 396.574 70.4293 393 70.4293 387.24C70.4293 384.348 71.0306 380.195 71.7654 378.023C72.5002 375.85 73.716 371.646 74.4776 368.676C75.2258 365.693 76.5752 362.492 77.4837 361.554C78.3789 360.615 80.0089 358.173 81.1178 356.141C83.4693 351.783 89.8556 348.055 99.1546 345.599C106.169 343.748 112.061 344.134 123.097 347.181C126.718 348.183 129.871 348.813 130.111 348.582C130.352 348.351 129.603 345.111 128.454 341.382C127.305 337.654 126.678 333.797 127.078 332.807C127.599 331.509 126.584 330.956 123.498 330.815C115.521 330.455 109.389 329.696 98.4866 327.716C95.9214 327.254 92.1537 326.906 90.1362 326.958C88.1188 327.009 86.4621 326.482 86.4621 325.788C86.4621 325.094 84.979 324.888 83.1219 325.338C80.9842 325.852 79.7818 325.608 79.7818 324.644C79.7818 323.808 78.7263 323.281 77.4436 323.474C76.161 323.654 72.9946 323.127 70.4293 322.291C67.8641 321.468 63.6421 320.504 61.0769 320.157C58.5117 319.823 55.1181 319.18 53.5415 318.73C51.1232 318.049 50.3884 318.704 48.8653 322.857C46.4203 329.516 46.5807 367.648 49.0524 367.648C49.1592 367.648 49.4666 368.74 49.7338 370.065C50.5755 374.359 56.2671 384.193 61.5312 390.467ZM181.322 426.529C183.166 426.824 198.491 427.146 215.392 427.236C238.345 427.352 248.246 426.914 254.512 425.487C264.986 423.109 272.428 419.509 276.062 415.074C279.549 410.806 279.79 407.527 276.517 408.736C275.234 409.212 263.65 409.932 250.798 410.33C215.352 411.423 179.398 408.324 149.644 401.614C132.877 397.834 131.42 398.258 134.48 406.01C137.927 414.753 154.708 422.093 181.322 426.529ZM474.588 390.943C470.913 392.614 467.306 393.913 466.571 393.836C462.83 393.463 460.318 392.357 461.494 391.624C462.216 391.161 465.008 387.999 467.694 384.579C471.488 379.771 472.583 377.187 472.583 373.099C472.583 365.526 468.028 359.484 461.561 358.468C458.809 358.031 456.564 357.028 456.578 356.231C456.618 352.593 460.479 344.661 463.498 341.961C465.329 340.315 468.054 337.487 469.551 335.661C474.574 329.516 485.356 325.338 497.595 324.798L508.59 324.322L513.627 329.272C516.406 331.997 518.971 335.379 519.332 336.793C520.388 340.907 520.121 352.554 518.945 353.686C517.395 355.164 515.378 351.565 515.364 347.258C515.337 343.581 509.673 335.597 508.136 337.076C507.695 337.513 507.321 337.191 507.321 336.369C507.321 334.376 501.376 334.453 497.621 336.471C493.239 338.824 487.293 344.121 487.921 345.098C489.284 347.232 489.765 376.518 488.469 378.845C485.543 384.091 481.041 388.025 474.588 390.943ZM178.998 462.77C188.684 464.892 206.881 464.236 218.545 461.343C229.461 458.631 247.684 449.631 250.824 445.402L253.483 441.789L243.583 440.902C227.951 439.488 173.693 440.966 165.958 443.023C160.146 444.553 159.224 445.26 158.85 448.436C158.075 454.928 164.662 459.621 178.998 462.77ZM183.326 401.061C206.748 403.709 276.156 402.925 283.197 399.942C285.949 398.785 288.207 397.358 288.207 396.78C288.207 396.201 272.068 395.777 252.334 395.828C225.466 395.905 215.966 395.533 214.457 394.324C213.348 393.437 210.996 392.756 209.246 392.794C207.482 392.833 203.194 392.28 199.707 391.547C196.219 390.827 183.473 390.017 171.382 389.76C157.995 389.477 148.709 388.732 147.614 387.87C146.638 387.086 144.033 386.495 141.828 386.559C139.637 386.61 135.749 386.045 133.184 385.299C116.871 380.517 110.284 381.134 119.383 386.61C127.746 391.65 155.603 397.937 183.326 401.061ZM40.8757 286.332C41.664 288.274 42.7862 289.868 43.3741 289.868C45.9661 289.868 57.0687 252.534 57.0687 243.843C57.0687 242.146 55.5723 241.014 52.0585 240.037C41.5437 237.145 38.07 236.823 36.8809 238.623C33.9415 243.097 36.6938 276.06 40.8757 286.332ZM153.639 212.705C155.269 213.335 158.102 213.875 159.945 213.901C170.433 214.029 142.229 206.586 117.191 202.613C93.1557 198.795 71.565 197.188 46.3936 197.342C23.8142 197.484 18.323 197.998 18.323 200.016C18.323 200.646 31.55 201.173 48.0503 201.173C64.4037 201.186 86.8495 202.035 97.9388 203.063C116.563 204.799 146.665 210.005 153.639 212.705ZM309.21 282.476C312.203 285.638 320.847 285.458 324.281 282.154C330.6 276.073 325.269 264.156 316.238 264.156C305.042 264.156 301.26 274.016 309.21 282.476ZM386.341 248.702C396.388 252.662 399.768 253.395 398.419 251.274C394.411 245.038 354.168 234.702 320.406 231.231C314.127 230.588 312.109 230.742 312.804 231.822C313.325 232.632 315.383 233.301 317.387 233.301C328.957 233.301 371.19 242.737 386.341 248.702ZM141.842 259.72C143.645 261.456 146.358 262.87 147.854 262.87C155.189 262.87 158.997 250.939 152.971 246.877C143.405 240.423 133.585 251.762 141.842 259.72ZM411.459 271.008C415.614 273.798 416.122 273.669 418.433 269.362C420.691 265.158 421.172 259.013 419.235 259.013C418.553 259.013 417.057 258.113 415.908 257.008C413.837 255.002 410.43 255.606 411.793 257.727C412.18 258.332 411.886 259.206 411.125 259.656C410.363 260.106 410.069 260.98 410.457 261.584C410.844 262.189 410.564 263.05 409.815 263.5C407.451 264.901 408.332 268.899 411.459 271.008ZM210.716 232.722C220.148 234.779 221.404 234.856 221.404 233.352C221.404 231.257 217.169 229.791 206.708 228.261C201.203 227.451 195.632 226.487 194.349 226.101C193.066 225.728 192.011 226.011 192.011 226.731C192.011 228.081 197.435 229.817 210.716 232.722ZM53.7553 220.277C56.6813 220.933 59.2198 221.525 59.4068 221.602C59.5939 221.666 59.7408 219.39 59.7408 216.523V211.33L54.7306 212.178C48.9054 213.168 45.1778 215.945 47.1284 217.822C47.8499 218.516 50.8293 219.609 53.7553 220.277Z" fill="#070A13"/>
<path d="M328.236 310.721C327.087 312.263 325.884 313.665 324.695 314.847C317.494 321.983 312.003 324.579 304.147 324.579C291.948 324.579 280.592 314.577 276.958 300.616C276.704 299.677 276.477 298.79 276.276 297.942C276.797 299.253 277.385 299.986 277.96 299.793C279.656 299.253 284.199 302.737 284.199 304.588C284.199 306.131 293.445 314.23 295.462 314.449C296.25 314.526 297.346 314.526 297.894 314.449C298.441 314.359 298.896 314.745 298.896 315.31C298.896 315.863 303.251 315.927 308.582 315.452C313.913 314.976 318.723 314.847 319.271 315.156C319.818 315.477 320.273 315.117 320.273 314.372C320.273 313.626 321.168 313.009 322.277 313.009C323.386 313.009 324.281 312.443 324.281 311.762C324.281 311.081 325.163 310.836 326.232 311.235C326.819 311.453 327.501 311.26 328.236 310.721ZM142.577 301.528C142.577 302.248 144.046 301.593 145.917 300.333C145.503 300.654 145.075 300.963 144.647 301.284C142.309 302.981 140.212 304.64 138.849 305.861C140.786 303.611 140.746 303.303 138.756 301.837C137.553 300.95 135.723 300.217 134.681 300.191C131.928 300.14 123.899 293.905 122.469 290.704C121.988 289.636 120.959 287.978 119.89 286.474C121.868 288.479 124.273 289.508 127.092 289.598C127.76 289.624 128.842 290.562 129.497 291.681C130.712 293.776 136.698 294.252 142.938 293.082C140.947 293.48 139.023 293.725 137.687 293.725C133.639 293.725 133.278 293.995 134.48 296.142C135.215 297.479 137.339 298.944 139.196 299.381C141.054 299.831 142.577 300.796 142.577 301.528ZM130.285 310.811C133.184 310.155 135.482 309.036 137.339 307.391C137.273 307.507 137.232 307.596 137.232 307.648C137.232 309.075 134.44 310.193 130.285 310.811ZM336.265 293.828C336.078 295.717 335.277 298.199 334.074 300.86C334.475 299.729 334.836 298.546 335.17 297.337C335.517 296.026 335.891 294.817 336.265 293.828ZM117.579 283.427C115.762 280.624 114.493 276.626 113.905 272.358C113.998 272.949 114.119 273.528 114.239 274.119C115.08 277.937 116.19 281.036 117.579 283.427ZM281.861 269.465C279.616 273.013 277.452 277.757 276.129 281.923C276.53 280.599 277.038 279.184 277.652 277.603C278.855 274.505 280.244 271.805 281.861 269.465ZM118.888 248.497C121.761 243.869 125.622 240.462 130.418 238.379C125.729 240.423 121.788 244.01 118.888 248.497ZM153.626 293.056C154.681 291.089 154.655 290.254 153.025 290.408C153.693 290.292 154.133 290.279 154.254 290.382C154.748 290.871 154.494 291.809 153.626 293.056ZM287.459 263.423C289.624 261.7 292.082 260.299 294.874 259.142C292.523 260.119 289.73 261.751 287.459 263.423ZM339.539 294.419C339.044 292.645 338.35 291.359 337.655 291.179C337.682 291.166 337.708 291.153 337.735 291.153C338.35 291.153 339.031 292.529 339.539 294.419Z" fill="#412414"/>
<path d="M50.8025 201.173C65.6328 201.186 86.8495 202.035 97.9388 203.063C86.8495 202.035 64.4037 201.186 48.0503 201.173C31.55 201.173 18.323 200.646 18.323 200.016C18.323 198.229 22.6651 197.612 39.5261 197.406C27.0607 197.663 22.1173 198.486 23.106 200.029C23.4934 200.646 35.9589 201.173 50.8025 201.173ZM117.191 202.613C111.834 201.765 106.583 201.019 101.386 200.376C106.583 201.019 111.82 201.765 117.191 202.613Z" fill="#424045"/>
<path d="M506.132 116.708L506.105 116.683C504.569 115.127 503.313 113.34 503.313 112.736C503.313 108.725 522.953 99.6739 533.281 98.9411C536.273 98.7226 539.32 98.4911 540.054 98.4269C542.74 98.1697 534.096 94.6857 528.538 93.7858C525.385 93.2715 520.254 91.8059 517.128 90.5075C510.955 87.9619 497.661 76.7 498.77 74.9515C499.158 74.373 498.89 73.8845 498.196 73.8845C494.415 73.8845 488.817 50.9362 489.885 39.8156L490.62 32.102L493.092 42.9911C500.574 76.0443 513.093 88.6562 543.395 93.6572C549.567 94.6857 552.079 95.6499 552.079 97.0255C552.079 98.4397 549.246 99.4039 541.537 100.625C535.739 101.538 529.005 103.274 526.587 104.482L522.165 106.668L524.075 109.547C522.833 107.992 521.737 106.989 520.882 106.668C518.838 105.922 509.993 110.704 509.993 112.556C509.993 113.211 509.098 113.739 507.989 113.739C506.413 113.739 505.704 115.333 506.132 116.708ZM153.639 212.705C146.665 210.005 116.563 204.799 97.9388 203.063C86.8495 202.035 65.6328 201.186 50.8025 201.173C35.9589 201.173 23.4934 200.646 23.106 200.029C22.1173 198.486 27.0607 197.663 39.5261 197.406C41.6104 197.381 43.8952 197.355 46.3936 197.342C65.9535 197.226 83.3356 198.165 101.386 200.376C106.583 201.019 111.834 201.765 117.191 202.613C118.755 202.857 120.331 203.127 121.908 203.397C145.596 207.486 169.779 214.017 159.945 213.901C158.102 213.875 155.269 213.335 153.639 212.705ZM386.341 248.702C371.19 242.737 328.957 233.301 317.387 233.301C315.383 233.301 313.325 232.632 312.804 231.822C312.109 230.742 314.127 230.588 320.406 231.231C354.168 234.702 394.411 245.038 398.419 251.274C399.768 253.395 396.388 252.662 386.341 248.702ZM411.459 271.008C408.332 268.899 407.451 264.901 409.815 263.5C410.564 263.05 410.844 262.189 410.457 261.584C410.069 260.98 410.363 260.106 411.125 259.656C411.886 259.206 412.18 258.332 411.793 257.727C410.43 255.606 413.837 255.002 415.908 257.008C417.057 258.113 418.553 259.013 419.235 259.013C421.172 259.013 420.691 265.158 418.433 269.362C416.122 273.669 415.614 273.798 411.459 271.008ZM210.716 232.722C197.435 229.817 192.011 228.081 192.011 226.731C192.011 226.011 193.066 225.728 194.349 226.101C195.632 226.487 201.203 227.451 206.708 228.261C210.181 228.763 212.974 229.264 215.138 229.791C214.697 229.778 214.283 229.83 213.949 229.945C211.37 230.897 211.584 232.645 214.109 233.442C213.107 233.236 211.985 232.992 210.716 232.722ZM546.267 157.102C548.098 162.978 549.621 168.789 550.69 174.188C551.545 178.469 552.239 183.612 552.76 189.178C551.518 178.071 549.353 167.284 546.267 157.102ZM515.591 132.457C512.839 126.968 509.632 121.337 507.441 118.315C508.644 119.241 512.358 125.888 515.591 132.457ZM553.629 223.749C553.455 227.657 553.188 231.36 552.814 234.702C552.493 237.518 552.039 240.603 551.491 243.843C552.52 237.171 553.241 230.46 553.629 223.749ZM531.637 121.761C535.605 129.076 539.48 137.818 542.78 146.83C539.453 137.895 535.432 128.947 531.637 121.761ZM546.24 268.012C544.397 275.032 542.419 281.331 540.629 285.561C541.925 282.488 544.263 275.122 546.24 268.012ZM219.841 231.385C220.91 231.989 221.404 232.632 221.404 233.352C221.404 232.709 220.763 232.002 219.841 231.385ZM217.783 234.149C220.749 234.599 221.404 234.355 221.404 233.352C221.404 234.342 220.856 234.651 217.783 234.149Z" fill="#A2A4A4"/>
<path d="M142.577 301.528C142.577 300.796 141.054 299.831 139.196 299.381C137.339 298.944 135.215 297.479 134.48 296.142C133.278 293.995 133.639 293.725 137.687 293.725C139.023 293.725 140.947 293.48 142.938 293.082C144.621 292.773 146.331 292.336 147.961 291.783C144.661 293.03 141.16 294.547 140.345 295.203C138.849 296.386 138.943 296.939 140.893 298.353C143.565 300.307 145.356 300.551 147.934 298.739C147.306 299.266 146.625 299.793 145.917 300.333C144.046 301.593 142.577 302.248 142.577 301.528ZM217.783 234.149C216.821 233.995 215.619 233.764 214.109 233.442C211.584 232.645 211.37 230.897 213.949 229.945C214.283 229.83 214.697 229.778 215.138 229.791C217.276 230.292 218.812 230.82 219.841 231.385C220.763 232.002 221.404 232.709 221.404 233.352C221.404 234.355 220.749 234.599 217.783 234.149ZM153.626 293.056C153.319 293.519 152.918 294.02 152.437 294.548C152.971 293.918 153.425 293.313 153.786 292.76C153.733 292.85 153.679 292.953 153.626 293.056Z" fill="#8A7D61"/>
<path d="M453.691 270.532C457.179 272.191 459.61 273.193 459.864 272.911C460.051 272.692 465.355 258.049 471.635 240.372C486.839 197.573 491.342 186.26 497.073 176.399C502.832 166.474 504.676 164.855 509.512 165.395C514.415 165.947 517.261 170.923 519.987 183.779C525.558 210.005 523.407 239.857 513.961 267.177L508.336 283.44H503.82C501.335 283.44 499.305 284.018 499.305 284.725C499.305 285.175 500.774 285.548 503.126 285.78L500.921 285.754L483.94 285.522L461.895 274.659C459.236 273.348 456.457 271.946 453.691 270.532ZM474.588 390.943C481.041 388.025 485.543 384.091 488.469 378.845C489.765 376.518 489.284 347.232 487.921 345.098C487.293 344.121 493.239 338.824 497.621 336.471C501.376 334.453 507.321 334.376 507.321 336.369C507.321 337.191 507.695 337.513 508.136 337.076C509.673 335.597 515.337 343.581 515.364 347.258C515.378 351.565 517.395 355.164 518.945 353.686C520.121 352.554 520.388 340.907 519.332 336.793C518.971 335.379 516.406 331.997 513.627 329.272L508.59 324.322L497.595 324.798C493.079 325.004 488.75 325.698 484.835 326.804C488.349 325.724 492.063 325.017 495.63 324.811C505.13 324.258 507.642 322.548 500.307 321.61C497.915 321.301 499.318 321.198 503.406 321.378C513.053 321.828 520.508 325.556 525.438 332.435C529.232 337.706 529.353 338.387 529.139 351.487C528.912 364.408 528.671 365.488 524.182 373.433C521.59 378.035 516.887 385.543 513.721 390.146L507.989 398.502L500.4 398.888C493.052 399.261 492.611 399.081 486.826 393.746L480.84 388.217L474.12 391.161C474.28 391.084 474.427 391.02 474.588 390.943ZM370.255 302.004C371.323 297.8 373.1 291.333 374.183 287.618C375.305 283.748 375.625 280.573 374.931 280.149C374.263 279.75 373.715 280.521 373.715 281.858C373.715 283.208 373.368 284.635 372.94 285.034C372.526 285.445 365.979 282.064 358.404 277.539C345.644 269.902 340.313 267.781 340.313 270.326C340.313 270.352 340.313 270.378 340.313 270.391C339.405 268.951 338.724 267.588 338.684 267.112C338.243 261.546 323.159 248.831 313.031 245.514C310.88 244.807 308.849 243.457 308.529 242.506C307.941 240.77 314.928 240.937 324.949 242.917C327.153 243.341 330.306 243.676 331.963 243.663C333.62 243.637 334.969 244.228 334.969 244.974C334.969 245.745 336.118 245.977 337.641 245.514C339.231 245.026 340.314 245.283 340.314 246.144C340.314 246.941 340.915 247.237 341.65 246.8C342.384 246.363 343.707 246.44 344.602 246.967C345.484 247.494 347.689 248.073 349.492 248.265C351.296 248.445 353.166 249.23 353.674 250.014C354.462 251.235 356.159 251.646 363.761 252.444C365.097 252.572 366.099 253.228 373.715 258.884C376.735 261.134 377.042 262.214 376.908 270.159C376.828 274.98 375.732 282.411 374.49 286.654C373.247 290.896 371.337 297.8 370.255 302.004ZM251.666 273.399C251.813 272.898 251.973 272.383 252.133 271.869C252.267 271.458 252.387 271.059 252.508 270.686C254.351 264.875 254.886 263.204 254.552 263.024C254.405 262.947 254.138 263.114 253.737 263.346C253.683 263.384 253.617 263.423 253.55 263.474C252.855 263.886 249.328 262.471 245.707 260.324C242.1 258.19 237.824 256.442 236.221 256.442C235.353 256.442 234.751 256.48 234.324 256.905C235.085 246.003 237.009 242.917 242.835 239.51C246.803 237.183 248.967 237.055 271.346 237.672C284.653 238.045 297.226 238.443 299.283 238.572C305.229 238.945 302.637 241.58 295.449 242.467C285.909 243.65 272.949 247.147 272.415 248.69C272.161 249.422 271.253 250.027 270.397 250.052C268.206 250.091 261.139 256.249 257.144 261.584C255.06 264.361 253.095 268.899 251.666 273.399ZM357.843 360.77C354.97 362.287 354.035 363.405 354.422 364.614C357.188 373.291 300.298 369.82 269.115 359.407C261.165 356.758 247.751 350.227 248.58 349.43C248.833 349.186 251.612 349.855 254.765 350.922C257.905 351.989 261.165 352.824 261.994 352.773C262.809 352.722 261.085 351.86 258.146 350.87C255.206 349.868 251.826 348.505 250.637 347.836C249.448 347.168 246.001 345.985 242.955 345.201C239.922 344.404 237.437 343.208 237.437 342.527C237.437 342.27 237.343 342.025 237.183 341.832C237.397 342.025 237.57 342.257 237.664 342.501C237.904 343.169 244.411 345.625 252.134 347.952C259.856 350.266 266.349 352.58 266.576 353.082C266.817 353.596 267.872 353.686 268.914 353.3C269.97 352.902 270.838 353.262 270.838 354.097C270.838 354.997 271.867 355.293 273.404 354.83C274.806 354.393 276.29 354.573 276.704 355.216C277.118 355.858 281.22 356.797 285.829 357.298C290.425 357.787 294.847 358.725 295.636 359.355C297.613 360.937 318.95 362.505 338.403 362.505C349.96 362.505 353.768 362.299 357.843 360.77ZM148.455 348.145C148.629 348.158 148.642 347.939 148.482 347.489C147.76 345.484 148.308 345.471 156.164 347.245C170.46 350.497 177.448 351.436 191.784 352.053C199.386 352.387 205.879 352.927 206.226 353.249C206.56 353.583 205.224 355.087 203.234 356.591C201.243 358.095 199.934 359.638 200.334 360.011C200.348 360.024 200.348 360.024 200.361 360.037C190.073 364.022 175.136 364.035 163.259 358.803C159.01 356.938 153.305 352.747 148.455 348.145ZM198.932 492.841C195.631 492.892 191.597 492.815 186.84 492.609C171.088 491.915 165.156 490.822 142.243 484.356C141.321 484.099 140.746 484.124 140.399 484.639C140.88 482.042 141.721 479.985 142.804 479.715C144.033 479.406 150.339 480.216 156.832 481.54C163.326 482.852 177.301 484.536 187.896 485.294C207.335 486.696 214.684 488.264 208.03 489.614C206.2 489.974 202.298 490.835 199.359 491.504L194.015 492.725L198.932 492.841ZM53.8755 318.82C55.5723 319.257 58.6854 319.848 61.0769 320.157C63.6421 320.504 67.8641 321.468 70.4293 322.291C72.9946 323.127 76.161 323.654 77.4436 323.474C78.7263 323.281 79.7818 323.808 79.7818 324.644C79.7818 325.608 80.9842 325.852 83.1219 325.338C84.979 324.888 86.4621 325.094 86.4621 325.788C86.4621 326.482 88.1188 327.009 90.1362 326.958C92.1537 326.906 95.9214 327.254 98.4866 327.716C109.389 329.696 115.521 330.455 123.498 330.815C125.088 330.892 126.13 331.072 126.691 331.406C126.17 331.136 125.234 331.008 123.832 331.008C121.654 331.008 119.864 331.509 119.864 332.126C119.864 332.743 115.201 333.63 109.509 334.106C92.8484 335.494 62.7069 328.938 58.9525 323.114C58.2578 322.021 59.5671 321.828 63.8826 322.407C68.7058 323.05 69.16 322.96 66.4211 321.867C64.5773 321.134 61.5846 320.311 59.7408 320.041C58.0307 319.784 55.4921 319.257 53.8755 318.82ZM437.525 307.147C437.365 306.915 437.138 306.671 436.83 306.375C435.508 305.102 435.174 305.231 435.174 306.966C435.174 310.72 432.796 309.435 422.802 300.268C414.211 292.388 413.556 291.462 417.003 292.105C419.716 292.593 420.584 292.375 419.929 291.333C419.889 291.282 419.849 291.231 419.809 291.179C422.027 292.079 426.529 294.098 429.83 295.679C433.13 297.26 436.657 298.263 437.659 297.916C439.102 297.402 439.275 298.43 438.501 302.891C438.273 304.228 437.926 305.732 437.525 307.147ZM433.771 315.927C434.011 315.207 434.238 314.423 434.426 313.665C434.96 311.556 436.082 309.409 436.937 308.895C436.964 308.882 436.977 308.869 436.991 308.856C436.617 310.026 436.216 311.042 435.855 311.723C435.08 313.189 434.399 314.552 433.771 315.927ZM212.279 490.912C211.33 490.977 209.754 491.324 208.097 491.877C207.416 492.108 206.48 492.301 205.318 492.455C206.44 492.224 207.282 491.928 207.629 491.594C208.444 490.81 210.208 490.411 211.571 490.681C211.865 490.732 212.105 490.81 212.279 490.912ZM343.867 292.542C343.613 298.147 342.839 302.724 341.543 302.724C341.516 302.724 341.489 302.724 341.476 302.724C342.251 301.863 343.199 298.841 343.654 294.689C343.734 293.969 343.814 293.262 343.867 292.542ZM416.656 289.842C415.494 289.701 413.543 288.955 412.073 288.055C410.71 287.219 409.241 286.718 407.851 286.525C409.294 286.692 410.884 287.155 412.461 287.927C413.53 288.441 415.106 289.161 416.656 289.842ZM141.254 331.149C141.24 331.586 141.24 332.049 141.24 332.512C141.24 336.69 141.842 340.817 142.577 341.665C143.191 342.372 144.541 343.979 145.81 345.509C144.768 344.404 143.792 343.285 142.911 342.192C141.347 340.251 140.853 335.841 141.254 331.149ZM146.264 316.544C148.442 313.6 150.967 312.045 156.939 309.409C152.236 311.492 148.736 313.767 146.264 316.544ZM235.566 293.082C234.938 289.894 234.498 286.101 234.217 281.833C234.604 286.165 235.112 290.305 235.646 293.159C236.702 298.777 237.771 306.401 238.011 310.116C237.771 306.401 236.662 298.739 235.566 293.082ZM202.913 358.918C203.915 357.993 205.719 356.861 207.015 356.373C205.812 357.324 204.436 358.173 202.913 358.918ZM249.916 286.718C250.156 287.052 250.504 287.181 250.944 287.039C251.773 286.77 253.523 283.8 254.859 280.419C252.401 286.654 250.61 288.299 249.916 286.718ZM341.69 272.679C342.384 273.412 342.919 275.315 343.293 277.822C342.892 275.816 342.358 274.08 341.69 272.679ZM428.894 329.041C428.988 328.758 429.081 328.462 429.161 328.179C430.444 323.975 431.874 319.977 432.461 318.948C431.366 321.61 430.337 324.554 429.095 328.436C429.028 328.642 428.961 328.835 428.894 329.041ZM78.5124 217.231C78.8465 215.186 79.1137 213.824 79.2607 213.477C79.3141 213.322 79.4611 213.181 79.6749 213.052C79.2607 213.901 78.8999 215.225 78.5124 217.231ZM222.687 347.785C223.622 349.315 224.076 351.667 224.076 354.856C224.076 352.272 223.475 349.315 222.687 347.785ZM368.21 354.984C373.648 350.767 378.03 344.905 382.72 335.919C377.964 345.021 373.608 350.87 368.21 354.984ZM140.011 490.604C140.198 492.571 140.613 494.461 141.08 495.335C141.735 496.518 142.683 499.95 143.204 502.959C142.683 499.95 141.708 496.466 141.013 495.206C140.426 494.126 140.105 492.455 140.011 490.604ZM424.472 340.585C424.472 342.038 423.577 344.879 422.468 346.898C423.577 344.879 424.472 341.948 424.472 340.405C424.485 339.068 424.859 337.718 425.354 337.14C424.846 337.963 424.485 339.377 424.472 340.585ZM212.239 349.469C213.134 348.003 214.229 346.975 215.552 346.345C214.296 347.026 213.121 348.093 212.239 349.469Z" fill="#F1A05D"/>
<path d="M178.998 462.77C164.662 459.621 158.075 454.928 158.85 448.436C159.224 445.26 160.146 444.553 165.958 443.023C173.693 440.966 227.951 439.488 243.583 440.902L253.483 441.789L250.824 445.402C247.684 449.631 229.461 458.631 218.545 461.343C206.881 464.236 188.684 464.892 178.998 462.77ZM152.437 294.548C151.328 295.795 149.791 297.222 147.934 298.739C145.356 300.551 143.565 300.307 140.893 298.353C138.943 296.939 138.849 296.386 140.345 295.203C141.16 294.547 144.661 293.03 147.961 291.783C149.965 291.102 151.849 290.601 153.025 290.408C154.575 290.266 154.668 290.999 153.786 292.76C153.425 293.313 152.971 293.918 152.437 294.548Z" fill="#DF5435"/>
<path d="M506.132 116.708C506.319 117.313 506.72 117.878 507.361 118.264C507.388 118.277 507.414 118.29 507.441 118.315C509.632 121.337 512.839 126.968 515.591 132.457C517.796 136.944 519.786 141.392 520.588 143.95C521.483 146.779 522.766 150.25 523.447 151.664C529.687 164.482 533.254 209.157 530.034 233.944C528.311 247.288 524.65 264.541 522.125 271.226C521.323 273.348 520.054 277.539 519.292 280.534L518.677 282.964C518.651 282.308 518.397 281.743 517.956 281.473C517.248 281.061 516.673 281.331 516.673 282.077C516.673 282.874 513.36 283.414 508.35 283.44L513.961 267.177C523.407 239.857 525.558 210.005 519.987 183.779C517.261 170.923 514.415 165.947 509.512 165.395C504.676 164.855 502.832 166.474 497.073 176.399C491.342 186.26 486.839 197.573 471.635 240.372C465.355 258.049 460.051 272.692 459.864 272.911C459.61 273.193 457.179 272.191 453.691 270.532C443.885 265.505 434.225 260.234 429.99 257.56C419.208 250.734 400.049 241.979 384.404 236.733C351.096 225.574 299.938 217.925 258.4 217.886C240.884 217.873 231.919 219.146 224.611 222.682C216.514 226.59 194.028 221.537 180.654 212.795C174.201 208.578 137.259 198.731 115.187 195.337C101.252 193.202 97.6983 191.724 101.172 189.487C103.149 188.214 124.58 188.728 132.556 190.233C134.761 190.644 137.606 190.991 138.876 191.017C140.145 191.03 141.548 191.595 141.975 192.264C142.403 192.932 143.392 193.112 144.153 192.662C144.915 192.2 145.984 192.508 146.518 193.344C147.052 194.179 148.936 195.015 150.713 195.221C152.477 195.414 154.828 195.915 155.937 196.326C164.929 199.695 167.267 199.952 168.95 197.741C173.119 192.251 170.14 181.246 162.364 173.468C151.208 162.296 129.109 158.028 115.187 164.379C110.525 166.5 105.982 169.894 102.348 173.674C105.661 169.791 109.389 166.564 112.141 165.716C113.45 165.317 114.519 164.507 114.519 163.916C114.519 162.579 109.415 163.762 108.413 165.317C106.783 167.85 104.9 166.256 105.541 162.913C106.757 156.652 113.37 140.325 118.193 131.737C146.438 81.4181 186.546 51.0005 246.121 34.7117C287.392 23.424 362.118 26.0724 399.768 40.1627C409.521 43.8139 415.534 45.7808 417.805 46.0765C420.53 46.4237 440.932 56.5415 449.309 61.6839C453.037 63.9852 457.553 66.2479 459.33 66.7107C461.254 67.2249 461.801 67.2249 460.666 66.0807C461.908 67.0964 463.124 68.1249 464.3 69.1791L474.294 78.1012L475.242 76.9185C471.661 81.6495 467.239 85.6478 462.95 87.7691C456.364 91.0345 438.567 94.1972 434.733 92.7958C433.37 92.2816 432.502 90.546 432.502 88.3219C432.502 79.9397 419.462 66.5435 405.206 60.2569C396.361 56.3615 381.705 54.8445 374.65 57.0943C369.172 58.8299 363.026 65.078 363.026 68.9091C363.026 75.5686 373.087 88.2448 383.802 95.0842C402.988 107.336 419.769 109.187 431.165 100.291C432.608 99.1725 436.576 98.9796 445.435 99.6353C455.268 100.355 458.915 101.217 463.859 104.006C477.834 111.887 485.062 129.706 486.291 159.378L486.612 167.092L488.269 157.449C491.943 136.172 492.931 132.123 496.018 125.952C498.824 120.359 501.255 116.027 503.353 112.941C503.553 113.687 504.716 115.268 506.105 116.683L506.132 116.708ZM324.748 438.176C325.189 435.451 325.911 431.774 326.352 430C326.806 428.226 327.474 421.682 327.848 415.46C328.436 405.689 328.115 403.118 325.483 396.818C320.086 383.885 310.292 377.65 285.629 371.427C265.16 366.272 243.289 361.927 233.322 361.04L224.076 360.204V354.856C224.076 351.667 223.622 349.315 222.687 347.785C222.58 347.566 222.473 347.386 222.353 347.232C220.776 345.149 218.01 345.021 215.552 346.345C214.229 346.975 213.134 348.003 212.239 349.469C211.972 349.893 211.731 350.343 211.517 350.819C210.609 352.927 209.059 354.779 207.015 356.373C205.719 356.861 203.915 357.993 202.913 358.918C202.098 359.317 201.256 359.69 200.361 360.037C200.348 360.024 200.348 360.024 200.334 360.011C199.934 359.638 201.243 358.095 203.234 356.591C205.224 355.087 206.56 353.583 206.226 353.249C205.879 352.927 199.386 352.387 191.784 352.053C177.448 351.436 170.46 350.497 156.164 347.245C148.308 345.471 147.76 345.484 148.482 347.489C148.642 347.939 148.629 348.158 148.455 348.145C147.533 347.271 146.652 346.396 145.81 345.509C144.541 343.979 143.191 342.372 142.577 341.665C141.842 340.817 141.24 336.69 141.24 332.512C141.24 332.049 141.24 331.586 141.254 331.149C141.641 326.816 142.79 322.24 144.581 319.141C145.155 318.164 145.703 317.303 146.264 316.544C148.736 313.767 152.236 311.492 156.939 309.409C165.45 305.655 174.281 303.804 185.063 303.495C195.952 303.187 186.867 297.582 175.484 297.582C175.003 297.582 174.522 297.569 174.081 297.556C175.604 297.556 177.18 297.286 177.742 296.746C178.223 296.283 177.568 295.177 176.299 294.277C174.134 292.76 174.214 292.182 177.648 285.445C179.665 281.486 181.295 277.822 181.255 277.307C181.202 276.6 176.993 284.018 173.907 289.881C176.833 283.671 181.189 274.608 184.756 267.37C188.751 259.244 193.935 253.871 197.743 253.883C208.845 253.961 210.876 257.676 212.252 280.547C213.535 302.081 216.474 317.663 220.763 325.865C223.716 331.496 233.349 341.292 235.927 341.292C236.368 341.292 236.836 341.511 237.183 341.832C237.343 342.025 237.437 342.27 237.437 342.527C237.437 343.208 239.922 344.404 242.955 345.201C246.001 345.985 249.448 347.168 250.637 347.836C251.826 348.505 255.206 349.868 258.146 350.87C261.085 351.86 262.809 352.722 261.994 352.773C261.165 352.824 257.905 351.989 254.765 350.922C251.612 349.855 248.833 349.186 248.58 349.43C247.751 350.227 261.165 356.758 269.115 359.407C300.298 369.82 357.188 373.291 354.422 364.614C354.035 363.405 354.97 362.287 357.843 360.77C358.885 360.384 359.927 359.908 361.116 359.33C363.708 358.083 366.046 356.668 368.21 354.984C373.608 350.87 377.964 345.021 382.72 335.919C388.318 325.209 391.645 317.611 390.843 317.38C390.603 317.316 391.084 316.454 391.899 315.452C392.714 314.462 393.769 312.083 394.25 310.168C394.731 308.265 395.813 305.077 396.655 303.097C397.51 301.13 398.312 299.214 398.432 298.867C398.552 298.52 399.287 296.784 400.049 295.01C400.824 293.236 401.679 290.639 401.959 289.225C402.374 287.129 404.805 286.178 407.851 286.525C409.241 286.718 410.71 287.219 412.073 288.055C413.543 288.955 415.494 289.701 416.656 289.842C417.778 290.331 418.887 290.806 419.809 291.179C419.849 291.231 419.889 291.282 419.929 291.333C420.584 292.375 419.716 292.593 417.003 292.105C413.556 291.462 414.211 292.388 422.802 300.268C432.796 309.435 435.174 310.72 435.174 306.966C435.174 305.231 435.508 305.102 436.83 306.375C437.138 306.671 437.365 306.915 437.525 307.147C437.352 307.738 437.178 308.316 436.991 308.856C436.977 308.869 436.964 308.882 436.937 308.895C436.082 309.409 434.96 311.556 434.426 313.665C434.238 314.423 434.011 315.207 433.771 315.927C433.317 316.917 432.876 317.907 432.461 318.948C431.874 319.977 430.444 323.975 429.161 328.179C429.081 328.462 428.988 328.758 428.894 329.041C427.692 332.705 426.262 336.086 425.661 336.729C425.554 336.844 425.447 336.973 425.354 337.14C424.859 337.718 424.485 339.068 424.472 340.405C424.472 341.948 423.577 344.879 422.468 346.898C421.372 348.929 420.477 351.372 420.477 352.336C420.477 356.746 415.881 364.652 412.3 366.439C410.176 367.493 408.453 368.997 408.453 369.795C408.453 371.62 403.055 382.252 400.436 385.595C396.695 390.339 389.561 396.574 387.864 396.574C386.074 396.574 383.067 401.845 383.067 404.995C383.067 406.023 382.466 406.859 381.731 406.859C380.997 406.859 380.369 407.579 380.329 408.466C380.208 411.166 369.6 418.571 366.995 417.774C365.298 417.259 363.775 418.417 361.544 421.926C357.482 428.29 349.666 436.428 347.608 436.428C346.713 436.428 345.23 434.692 344.322 432.571C343.413 430.45 342.077 428.714 341.369 428.714C340.661 428.714 339.405 430.45 338.563 432.571C337.735 434.692 336.586 436.428 336.011 436.428C335.437 436.428 333.82 437.534 332.431 438.871C331.028 440.221 328.556 441.725 326.926 442.226C324.12 443.075 324 442.843 324.748 438.176ZM452.115 422.993C440.01 418.841 437.392 413.184 438.3 393.116C438.688 384.759 439.302 376.197 439.69 374.076C440.077 371.954 440.759 367.622 441.186 364.434C441.627 361.245 442.629 356.334 443.404 353.506C444.192 350.677 444.927 347.785 445.047 347.078C445.168 346.371 445.635 345.214 446.076 344.507C446.517 343.799 447.319 341.19 447.84 338.721C448.227 336.896 449.67 333.052 451.42 329.118C451.567 330.159 453.732 328.565 457.833 324.245C462.282 319.553 467.212 316.043 472.864 313.536C480.453 310.155 482.577 309.808 494.628 309.898C509.632 310.013 516.74 312.353 524.583 319.733C532.198 326.894 533.387 330.288 533.254 344.507C533.16 354.791 532.425 359.42 529.58 367.635C527.629 373.279 526.026 379.115 526.026 380.594C526.026 384.541 518.758 394.414 509.485 403.066C499.959 411.963 483.659 420.525 473.906 421.772C470.232 422.235 467.239 423.122 467.239 423.739C467.239 424.253 467.72 424.549 468.562 424.665C462.603 425.217 457.018 424.677 452.115 422.993ZM194.108 514.516C194.616 512.935 195.551 511.444 196.193 511.212C196.834 510.968 197.355 510.21 197.355 509.515C197.355 508.127 197.582 507.87 207.215 498.176C210.809 494.576 213.455 491.35 213.107 491.015C213 490.912 212.706 490.874 212.279 490.912C212.105 490.81 211.865 490.732 211.571 490.681C210.208 490.411 208.444 490.81 207.629 491.594C207.282 491.928 206.44 492.224 205.318 492.455C203.661 492.661 201.523 492.789 198.932 492.841L194.015 492.725L199.359 491.504C202.298 490.835 206.2 489.974 208.03 489.614C214.684 488.264 207.335 486.696 187.896 485.294C177.301 484.536 163.326 482.852 156.832 481.54C150.339 480.216 144.033 479.406 142.804 479.715C141.721 479.985 140.88 482.042 140.399 484.639C140.011 485.217 139.904 486.387 139.904 488.431C139.904 489.138 139.945 489.871 140.011 490.604C140.105 492.455 140.426 494.126 141.013 495.206C141.708 496.466 142.683 499.95 143.204 502.959C144.06 507.908 143.886 508.423 141.401 508.423C136.564 508.423 130.004 504.489 125.275 498.742C122.749 495.669 120.291 493.381 119.823 493.664C117.926 494.782 109.015 484.112 104.673 475.524C97.6315 461.588 93.61 445.427 97.204 445.427C98.1659 445.427 98.4064 444.553 97.8453 443.178C95.8813 438.446 95.5072 433.895 95.5205 414.573C95.5339 392.961 96.4424 385.543 99.1947 384.528C101.867 383.538 103.27 386.096 105.047 395.288C107.558 408.196 114.065 428.123 120.345 442.072C124.62 451.598 140.092 465.997 146.024 465.997C147.801 465.997 149.257 466.563 149.257 467.244C149.257 467.926 150.152 468.157 151.261 467.746C152.37 467.347 153.265 467.63 153.265 468.388C153.265 469.147 154.107 469.468 155.136 469.083C156.164 468.71 157.407 469.018 157.901 469.79C158.396 470.548 159.264 470.895 159.852 470.561C160.426 470.214 162.938 470.523 165.437 471.255C172.718 473.389 177.007 473.788 194.683 474.019C213.121 474.264 224.918 472.207 237.13 466.64C241.018 464.879 244.598 463.426 245.079 463.426C246.081 463.426 254.939 457.744 260.123 453.784C265.441 449.721 275.314 439.989 278.213 435.965C279.67 433.947 281.607 431.53 282.529 430.591C283.451 429.666 284.199 428.277 284.199 427.519C284.199 426.76 284.693 426.143 285.308 426.143C285.923 426.143 287.272 424.549 288.314 422.608C289.356 420.666 290.519 418.777 290.906 418.429C291.294 418.082 292.656 416.192 293.952 414.251C296.571 410.279 301.127 409.546 301.848 412.966C302.436 415.691 299.39 429.769 297.546 432.88C296.825 434.101 296.224 436.017 296.224 437.122C296.224 439.899 288.501 457.114 286.136 459.646C285.067 460.778 284.199 462.667 284.199 463.85C284.199 465.033 283.598 465.997 282.863 465.997C282.128 465.997 281.527 466.859 281.527 467.926C281.527 468.993 280.926 469.854 280.191 469.854C279.456 469.854 278.855 470.458 278.855 471.204C278.855 471.937 277.505 473.891 275.849 475.549C274.192 477.195 269.703 481.81 265.855 485.796C257.758 494.204 242.754 505.491 238.198 506.584C236.475 507.008 234.658 506.726 234.164 505.954C232.667 503.627 231.104 504.334 224.838 510.197C217.797 516.792 212.052 518.913 212.052 514.953C212.052 513.565 211.451 512.074 210.716 511.637C209.981 511.199 209.38 511.379 209.38 512.048C209.38 513.462 203.875 515.609 197.609 516.651C193.507 517.332 193.24 517.177 194.108 514.516ZM309.584 341.717C307.74 341.434 300.526 340.315 293.551 339.248C279.122 337.037 253.764 329.619 247.11 325.659C240.884 321.957 238.546 317.959 238.011 310.116C237.771 306.401 236.702 298.777 235.646 293.159C235.112 290.305 234.604 286.165 234.217 281.833C233.91 277.115 233.816 271.805 233.95 266.084C234.03 262.51 234.15 259.489 234.324 256.905C234.751 256.48 235.353 256.442 236.221 256.442C237.824 256.442 242.1 258.19 245.707 260.324C249.328 262.471 252.855 263.886 253.55 263.474C253.617 263.423 253.683 263.384 253.737 263.346C254.138 263.114 254.405 262.947 254.552 263.024C254.886 263.204 254.351 264.875 252.508 270.686C252.387 271.059 252.267 271.458 252.133 271.869C251.973 272.383 251.813 272.898 251.666 273.399C249.769 279.352 248.847 285.214 249.916 286.718C250.557 288.184 252.133 286.885 254.311 281.756C253.51 283.98 252.574 286.05 252.093 286.654C250.61 288.518 251.813 298.199 254.204 303.74C259.335 315.529 273.203 323.075 294.887 325.865C306.097 327.305 316.398 327.279 321.983 325.788C332.337 323.024 340.487 312.379 340.594 302.454C340.808 303.045 341.115 303.11 341.476 302.724C341.489 302.724 341.516 302.724 341.543 302.724C342.839 302.724 343.613 298.147 343.867 292.542C344.308 287.052 344.081 281.897 343.293 277.822C342.919 275.315 342.384 273.412 341.69 272.679C341.449 272.165 341.182 271.702 340.901 271.291C340.701 270.995 340.5 270.686 340.313 270.391C340.313 270.378 340.313 270.352 340.313 270.326C340.313 267.781 345.644 269.902 358.404 277.539C365.979 282.064 372.526 285.445 372.94 285.034C373.368 284.635 373.715 283.208 373.715 281.858C373.715 280.521 374.263 279.75 374.931 280.149C375.625 280.573 375.305 283.748 374.183 287.618C373.1 291.333 371.323 297.8 370.255 302.004C369.506 304.884 368.638 307.687 367.97 309.409L367.97 309.422C367.663 310.206 367.409 310.759 367.222 311.003C366.647 311.749 365.405 314.912 364.483 318.036C363.548 321.147 361.343 325.917 359.566 328.616C357.802 331.316 356.346 333.874 356.346 334.299C356.346 334.723 354.583 336.754 352.445 338.824L348.53 342.578L330.734 342.398C320.941 342.308 311.428 342 309.584 341.717ZM495.63 324.811C492.063 325.017 488.349 325.724 484.835 326.804C478.168 328.693 472.717 331.792 469.551 335.661C468.054 337.487 465.329 340.315 463.498 341.961C460.479 344.661 456.618 352.593 456.578 356.231C456.564 357.028 458.809 358.031 461.561 358.468C468.028 359.484 472.583 365.526 472.583 373.099C472.583 377.187 471.488 379.771 467.694 384.579C465.008 387.999 462.216 391.161 461.494 391.624C460.318 392.357 462.83 393.463 466.571 393.836C467.279 393.913 470.619 392.717 474.12 391.161L480.84 388.217L486.826 393.746C492.611 399.081 493.052 399.261 500.4 398.888L507.989 398.502L513.721 390.146C516.887 385.543 521.59 378.035 524.182 373.433C528.671 365.488 528.912 364.408 529.139 351.487C529.353 338.387 529.232 337.706 525.438 332.435C520.508 325.556 513.053 321.828 503.406 321.378C499.318 321.198 497.915 321.301 500.307 321.61C507.642 322.548 505.13 324.258 495.63 324.811ZM368.798 221.087C368.438 217.102 367.77 215.058 365.004 209.517C360.622 200.698 354.609 194.977 344.054 189.564C330.948 182.828 325.283 181.67 302.45 181.053C273.056 180.256 263.891 182.853 259.375 193.254C254.445 204.606 259.656 212.924 269.743 209.787C280.164 206.56 338.523 212.152 345.831 217.076C347.381 218.118 349.412 218.683 350.347 218.336C351.296 217.989 352.458 218.31 352.953 219.069C353.434 219.827 354.743 220.445 355.852 220.445C356.961 220.445 358.805 221.345 359.954 222.437C362.946 225.33 369.106 224.379 368.798 221.087ZM113.851 310.836C101.145 309.268 76.4817 305 68.4252 302.981C65.8333 302.325 63.8691 301.888 62.4529 301.348C63.8825 301.078 65.3522 300.088 66.1805 298.546C69.2267 292.863 77.0427 267.64 79.7549 254.758C81.2646 247.558 84.0971 235.473 86.0477 227.901C89.5215 214.389 89.6551 214.132 93.7034 213.644C96.8164 213.271 96.3621 213.091 91.8061 212.924C89.3745 212.834 86.5554 212.564 84.6048 212.281C89.7486 212.127 98.2327 212.782 108.507 214.197C113.651 214.916 119.476 215.444 121.44 215.379C123.417 215.328 125.422 215.881 125.903 216.626C126.384 217.372 127.867 217.642 129.216 217.231C130.565 216.819 132.035 217.063 132.489 217.771C132.944 218.465 134.133 218.748 135.135 218.375C136.137 218.002 137.339 218.285 137.807 219.018C138.274 219.738 139.477 220.033 140.479 219.66C141.481 219.288 142.683 219.57 143.151 220.303C143.619 221.023 144.875 221.293 145.957 220.895C147.039 220.496 147.921 220.792 147.921 221.55C147.921 222.309 148.816 222.604 149.925 222.193C151.034 221.794 151.929 222.129 151.929 222.952C151.929 223.774 152.463 224.134 153.118 223.749C154.681 222.81 162.617 225.523 162.617 227.001C162.617 227.631 163.446 228.158 164.475 228.158C167.227 228.158 170.126 233.211 170.981 239.549C171.903 246.273 170.781 254.128 168.964 253.549C168.256 253.318 165.784 249.731 163.473 245.566C155.683 231.514 148.322 225.459 135.896 222.9C124.126 220.47 107.999 225.317 100.29 233.596C92.5278 241.953 86.9965 257.059 88.5196 265.75C89.1609 269.414 90.951 270.892 91.579 269.079C91.4053 271.162 91.726 273.001 92.5009 275.816C95.8945 288.222 101.586 293.455 117.044 298.43C121.908 299.999 127.92 301.31 130.418 301.361L134.961 301.438L130.806 298.546C132.382 299.523 133.799 300.179 134.681 300.191C135.723 300.217 137.553 300.95 138.756 301.837C140.746 303.303 140.786 303.611 138.849 305.861C138.101 306.529 137.567 307.069 137.339 307.391C135.482 309.036 133.184 310.155 130.285 310.811C125.796 311.479 119.73 311.569 113.851 310.836ZM61.5312 390.467C56.2671 384.193 50.5755 374.359 49.7338 370.065C49.4666 368.74 49.1592 367.648 49.0524 367.648C47.6228 367.648 46.9546 354.843 47.1417 342.784L49.0121 337.294C50.3749 333.335 52.6729 327.704 54.1292 324.798C56.1467 320.8 56.6277 319.823 55.5588 319.231C56.9617 319.553 58.5517 319.861 59.7408 320.041C61.5846 320.311 64.5773 321.134 66.4211 321.867C69.16 322.96 68.7058 323.05 63.8826 322.407C59.5671 321.828 58.2578 322.021 58.9525 323.114C62.7069 328.938 92.8484 335.494 109.509 334.106C115.201 333.63 119.864 332.743 119.864 332.126C119.864 331.509 121.654 331.008 123.832 331.008C125.234 331.008 126.17 331.136 126.691 331.406C127.225 331.727 127.332 332.177 127.078 332.807C126.678 333.797 127.305 337.654 128.454 341.382C129.603 345.111 130.352 348.351 130.111 348.582C129.871 348.813 126.718 348.183 123.097 347.181C112.061 344.134 106.169 343.748 99.1546 345.599C89.8556 348.055 83.4693 351.783 81.1178 356.141C80.0089 358.173 78.3789 360.615 77.4837 361.554C76.5752 362.492 75.2258 365.693 74.4776 368.676C73.716 371.646 72.5002 375.85 71.7654 378.023C71.0306 380.195 70.4293 384.348 70.4293 387.24C70.4293 393 69.4006 396.574 67.7438 396.574C67.156 396.574 64.3636 393.823 61.5312 390.467ZM183.326 401.061C155.603 397.937 127.746 391.65 119.383 386.61C110.284 381.134 116.871 380.517 133.184 385.299C135.749 386.045 139.637 386.61 141.828 386.559C144.033 386.495 146.638 387.086 147.614 387.87C148.709 388.732 157.995 389.477 171.382 389.76C183.473 390.017 196.219 390.827 199.707 391.547C203.194 392.28 207.482 392.833 209.246 392.794C210.996 392.756 213.348 393.437 214.457 394.324C215.966 395.533 225.466 395.905 252.334 395.828C272.068 395.777 288.207 396.201 288.207 396.78C288.207 397.358 285.949 398.785 283.197 399.942C276.156 402.925 206.748 403.709 183.326 401.061ZM163.285 326.906C166.826 328.835 175.029 328.835 177.047 326.894C177.929 326.045 178.65 323.487 178.65 321.198C178.65 316.48 173.613 311.723 168.63 311.723C164.474 311.723 158.609 316.493 158.636 319.848C158.649 323.268 159.798 324.991 163.285 326.906ZM60.7962 292.336C61.4642 290.279 62.3862 287.708 63.5353 284.507C63.8025 283.761 64.0964 282.977 64.3904 282.154C67.1961 274.338 69.3603 267.46 71.1239 260.453C68.4251 271.651 65.0449 282.064 60.9164 292.041C60.8764 292.143 60.8363 292.233 60.7962 292.336ZM494.896 416.077C495.617 415.575 496.205 415.087 496.632 414.611C497.007 414.213 498.957 413.184 500.975 412.323C501.148 412.246 501.335 412.168 501.509 412.091C499.572 413.364 497.541 414.585 495.403 415.794L494.896 416.077ZM506.225 109.226C506.479 108.943 506.72 108.699 506.974 108.48C508.483 107.092 512.625 105.138 517.315 103.351C512.906 105.176 508.817 107.31 506.225 109.226ZM518.303 284.443L517.916 285.972L512.946 285.908C516.152 285.728 517.715 285.278 518.303 284.443ZM521.577 393.141C521.857 392.64 522.018 392.241 522.018 391.971C522.018 390.969 522.472 390.146 523.046 390.146C523.394 390.146 523.968 389.632 524.69 388.745C523.661 390.274 522.632 391.74 521.577 393.141ZM504.288 410.176C504.515 409.906 504.649 409.661 504.649 409.456C504.649 408.736 505.491 408.145 506.519 408.145C506.733 408.145 507.04 408.029 507.414 407.823C506.399 408.62 505.357 409.404 504.288 410.176ZM417.979 41.2298C426.463 44.9581 433.998 48.7121 440.745 52.5561C433.143 48.3649 424.245 43.981 415.467 40.137C416.308 40.497 417.137 40.857 417.979 41.2298ZM480.586 303.611C479.878 303.83 479.13 304.074 478.342 304.344C471.915 306.491 467.105 308.844 463.244 311.852C467.319 308.548 472.37 306.144 479.157 304.048C479.651 303.894 480.132 303.74 480.586 303.611ZM258.814 272.705C261.806 268.244 265.748 264.785 271.439 261.379C266.202 264.528 261.9 268.398 258.814 272.705ZM499.305 284.725C499.305 284.018 501.335 283.44 503.82 283.44H507.989C503.086 283.44 499.305 284.005 499.305 284.725ZM386.341 29.4407C372.005 25.1981 358.03 22.2155 343.186 20.2871C358.27 22.2284 372.419 25.2239 386.341 29.4407ZM91.8061 267.472C91.8061 267.421 91.8063 267.382 91.8063 267.344C91.8063 266.354 93.0889 262.227 94.6655 258.177C95.3602 256.378 96.2418 254.629 97.2572 252.932C95.6673 255.735 94.3313 258.872 93.209 262.356C92.5276 264.464 92.0733 266.071 91.8061 267.472ZM529.954 380.221C532.105 376.21 534.296 371.569 535.899 367.442C534.376 371.659 532.425 375.85 529.954 380.221ZM339.539 294.419C339.913 295.756 340.18 297.35 340.26 298.893V298.867C339.832 296.772 339.458 294.753 339.231 293.455C339.338 293.75 339.445 294.072 339.539 294.419ZM94.4649 188.446C94.3179 191.235 91.579 192.932 87.9316 192.585C91.5256 192.778 94.3179 191.055 94.4649 188.446ZM49.5065 321.198C49.0789 322.33 48.638 323.808 48.2506 325.479C48.4243 324.374 48.6382 323.474 48.8653 322.857C49.0924 322.227 49.3061 321.674 49.5065 321.198ZM514.83 302.235C512.117 301.94 508.537 301.785 503.233 301.631C499.973 301.541 497.341 301.477 495.083 301.49C497.447 301.464 500.187 301.516 503.58 301.618C508.684 301.786 512.171 301.94 514.83 302.235ZM172.691 297.492C171.449 297.414 170.634 297.273 170.634 297.119C170.634 297.093 170.674 296.977 170.741 296.81C170.928 297.157 171.703 297.389 172.691 297.492ZM112.836 238.199C114.399 237.363 116.016 236.643 117.659 236.052C117.913 235.962 118.193 235.872 118.461 235.782C116.456 236.515 114.586 237.312 112.836 238.199ZM481.428 65.5922L483.659 59.2413L481.455 65.5922C481.094 66.6336 480.68 67.6749 480.199 68.7034C480.653 67.662 481.081 66.595 481.428 65.5922ZM77.0961 226.564C76.8957 228.017 76.6819 229.624 76.4548 231.372C76.1742 233.442 75.8803 235.499 75.573 237.518C75.8536 235.615 76.1343 233.661 76.4015 231.617C76.6286 229.881 76.869 228.184 77.0961 226.564ZM131.661 233.314C134.907 233.146 137.232 233.455 137.232 234.355C137.232 233.481 134.881 233.172 131.661 233.314ZM540.295 345.034C540.335 344.404 540.362 343.748 540.402 343.067C540.669 336.934 540.522 331.753 539.841 327.331C540.522 331.753 540.682 336.934 540.402 343.067C540.375 343.735 540.335 344.378 540.295 345.034ZM52.2587 318.499C51.6976 318.563 51.1899 318.743 50.8024 319.038C51.2166 318.64 51.6842 318.486 52.2587 318.499ZM123.07 291.719C122.816 291.372 122.616 291.063 122.495 290.793C122.001 289.675 120.959 287.991 119.877 286.474H119.89C120.959 287.978 121.988 289.636 122.469 290.704C122.603 291.025 122.803 291.359 123.07 291.719ZM78.5124 217.231C78.5792 216.845 78.6593 216.485 78.7261 216.138C78.6459 216.523 78.5658 216.935 78.4856 217.385L78.5124 217.231Z" fill="#FCC87F"/>
<path d="M521.577 393.141C517.315 398.837 512.732 403.606 507.414 407.823C507.04 408.029 506.733 408.145 506.519 408.145C505.491 408.145 504.649 408.736 504.649 409.456C504.649 409.661 504.515 409.906 504.288 410.176C503.38 410.819 502.458 411.461 501.509 412.091C501.335 412.168 501.148 412.246 500.975 412.323C498.957 413.184 497.007 414.213 496.632 414.611C496.205 415.087 495.617 415.575 494.896 416.077C486.011 420.975 476.926 423.893 468.562 424.665C467.72 424.549 467.239 424.253 467.239 423.739C467.239 423.122 470.232 422.235 473.906 421.772C483.659 420.525 499.959 411.963 509.485 403.066C518.758 394.414 526.026 384.541 526.026 380.594C526.026 379.115 527.629 373.279 529.58 367.635C532.425 359.42 533.16 354.791 533.254 344.507C533.307 339.004 533.16 335.121 532.519 332.023C533.174 334.157 533.721 336.626 534.242 339.621C535.565 347.013 535.458 349.88 533.588 357.851C532.372 363.058 531.37 368.702 531.37 370.373C531.37 374.783 532.92 374.191 535.097 369.435C533.601 373.021 531.757 376.853 529.954 380.221C528.417 382.946 526.681 385.749 524.73 388.68L524.69 388.745C523.968 389.632 523.394 390.146 523.046 390.146C522.472 390.146 522.018 390.969 522.018 391.971C522.018 392.241 521.857 392.64 521.577 393.141ZM84.2707 212.281C86.5553 212.564 89.3745 212.834 91.8061 212.924C96.3621 213.091 96.8164 213.271 93.7034 213.644C89.6551 214.132 89.5215 214.389 86.0477 227.901C84.6716 233.249 82.8545 240.834 81.3714 247.378C84.1905 233.558 84.2707 230.421 82.3468 228.57C81.5585 227.811 80.8103 224.391 80.6767 220.959C80.4629 215.032 80.6366 214.698 84.4577 213.888C86.6622 213.412 87.8647 212.962 87.1299 212.859C86.5954 212.795 85.4598 212.564 84.2707 212.281ZM98.5398 178.225C99.288 177.055 100.076 175.988 100.865 175.127C102.147 173.712 102.334 172.877 101.359 172.877C100.517 172.877 99.8224 172.26 99.8224 171.514C99.8224 170.768 100.317 170.447 100.931 170.807C101.546 171.18 101.947 170.216 101.827 168.699C101.626 166.024 110.765 142.909 113.116 140.145C113.664 139.515 115.575 136.378 117.605 132.804C112.849 141.611 106.703 156.897 105.541 162.913C104.9 166.256 106.783 167.85 108.413 165.317C109.415 163.762 114.519 162.579 114.519 163.916C114.519 164.507 113.45 165.317 112.141 165.716C109.389 166.564 105.661 169.791 102.348 173.674C100.918 175.152 99.6354 176.682 98.5398 178.225ZM53.7553 220.277C50.8293 219.609 47.8499 218.516 47.1284 217.822C45.1778 215.945 48.9054 213.168 54.7306 212.178L59.7408 211.33V216.523C59.7408 219.39 59.5939 221.666 59.4068 221.602C59.2198 221.525 56.6813 220.933 53.7553 220.277ZM442.321 57.7113C432.795 52.556 419.929 46.3465 417.805 46.0765C415.534 45.7808 409.521 43.8139 399.768 40.1627C384.203 34.3389 362.305 30.4691 339.044 28.7335C353.901 29.7235 367.542 31.4462 377.055 33.7731C382.934 35.213 389.307 36.3572 391.23 36.3315C397.27 36.2415 423.71 47.4778 442.321 57.7113ZM518.303 284.443C517.715 285.278 516.152 285.728 512.946 285.908L503.126 285.78C500.774 285.548 499.305 285.175 499.305 284.725C499.305 284.005 503.086 283.44 507.989 283.44H508.336C513.36 283.414 516.673 282.874 516.673 282.077C516.673 281.331 517.248 281.061 517.956 281.473C518.397 281.743 518.651 282.308 518.677 282.964L518.303 284.443ZM170.741 296.81C171.088 295.936 172.277 293.352 173.907 289.881C176.993 284.018 181.202 276.6 181.255 277.307C181.295 277.822 179.665 281.486 177.648 285.445C174.214 292.182 174.134 292.76 176.299 294.277C177.568 295.177 178.223 296.283 177.742 296.746C177.18 297.286 175.604 297.556 174.081 297.556C173.573 297.543 173.105 297.53 172.678 297.491C171.702 297.389 170.928 297.157 170.741 296.81ZM311.855 323.744L306.244 325.659L314.661 325.762C319.725 325.826 323.8 325.184 327.207 323.641C325.55 324.566 323.8 325.299 321.983 325.788C316.398 327.279 306.097 327.305 294.887 325.865C294.193 325.775 293.511 325.685 292.843 325.582C296.624 325.994 298.949 325.698 298.227 324.579C297.773 323.872 296.477 323.294 295.355 323.294C294.7 323.294 293.03 322.227 290.986 320.581C295.008 323.14 299.51 324.579 304.147 324.579C309.384 324.579 313.565 323.422 317.908 320.543C315.823 321.982 313.766 323.101 311.855 323.744ZM549.113 94.6342C562.246 96.4855 561.899 97.2054 544.437 100.137C549.968 99.1338 552.079 98.2469 552.079 97.0255C552.079 95.9328 550.462 95.0841 546.668 94.2742C547.469 94.4028 548.284 94.5185 549.113 94.6342ZM486.906 156.125C487.44 156.755 488.175 155.971 488.776 154.531C488.616 155.469 488.442 156.434 488.269 157.449L486.612 167.092L486.291 159.378C486.144 155.688 485.89 152.191 485.556 148.874C486.171 152.937 486.705 155.894 486.906 156.125ZM244.945 35.033C225.385 40.4583 207.95 47.4264 192.345 56.1428C203.995 49.5348 216.567 43.9424 230.088 39.3527C234.551 37.8357 239.628 36.3701 244.945 35.033ZM538.17 320.53C535.472 314.294 531.263 309.409 525.745 306.092C531.918 309.731 535.913 314.166 538.17 320.53ZM493.172 133.061C492.183 136.365 491.248 140.724 489.952 147.897C490.126 143.86 491.355 138.384 493.172 133.061ZM537.983 92.6415C518.691 88.5404 507.374 80.4796 499.932 64.3451C507.267 80.1967 518.477 88.2704 537.983 92.6415ZM298.348 27.885C287.005 28.2707 276.022 29.1835 265.988 30.662C268.794 30.212 271.52 29.8263 274.138 29.5049C281.299 28.6564 289.583 28.1164 298.348 27.885ZM482.43 131.223C478.796 117.891 472.663 108.969 463.859 104.006C472.877 109.097 478.916 117.865 482.43 131.223ZM282.061 311.852C279.456 308.676 278.36 305.989 277.051 300.988L276.984 300.718C278.066 304.832 279.816 308.586 282.061 311.852ZM282.195 323.435C282.716 323.577 283.223 323.718 283.731 323.847C277.305 322.304 271.8 320.208 267.284 317.586C271.319 319.848 276.236 321.764 282.195 323.435ZM541.644 100.599C535.431 101.705 528.912 103.376 526.587 104.482C529.005 103.274 535.739 101.538 541.537 100.625L541.644 100.599ZM339.365 309.152C338.59 311.363 337.481 313.523 336.091 315.503C337.053 313.999 337.948 312.315 338.804 310.425C339.017 309.975 339.191 309.563 339.365 309.152ZM506.225 109.226C504.408 110.55 503.313 111.784 503.313 112.736C503.313 112.787 503.326 112.864 503.353 112.941C503.166 113.211 502.979 113.481 502.792 113.777C503.126 113.121 503.313 112.671 503.313 112.517C503.313 111.591 504.502 110.344 506.439 108.995C506.372 109.072 506.292 109.149 506.225 109.226ZM495.51 127.006C496.485 124.769 497.541 122.686 498.636 120.912C497.795 122.455 496.926 124.139 496.018 125.952C495.844 126.312 495.67 126.659 495.51 127.006ZM73.3016 278.67C75.3458 271.998 77.3766 264.708 78.9532 258.306C77.5503 264.233 75.4527 271.715 73.3016 278.67ZM120.144 128.33C123.711 122.146 127.532 116.245 131.581 110.627C127.572 116.22 123.765 122.121 120.144 128.33ZM94.4649 188.446C94.3714 190.027 93.3158 191.287 91.6992 191.981C93.3693 191.261 94.4381 189.937 94.4782 188.278C94.4782 188.33 94.4782 188.381 94.4649 188.446ZM328.236 310.721C328.249 310.708 328.262 310.695 328.289 310.682C328.155 310.849 328.022 311.016 327.888 311.183C328.008 311.029 328.116 310.875 328.236 310.721Z" fill="#F9E1A7"/>
<path d="M492.153 32.7501L509.563 79.89L558.086 97.8573L509.096 114.61L486.612 163.235L473.013 114.161L424.491 96.1937L473.48 79.4406L492.153 32.7501Z" fill="white"/>
</svg>
